<svg width="70" height="70" viewBox="0 0 70 70" fill="none" xmlns="http://www.w3.org/2000/svg">
<path d="M69.5 0.5H0.5V69.5H69.5V0.5Z" stroke="#66FCF1"/>
<path d="M24.196 16.4142C23.369 12.0583 21.4183 9 19.1483 9C16.8782 9 14.9276 12.0583 14.1006 16.4142H24.196ZM13.6728 21.0968C13.6728 22.1796 13.7413 23.2186 13.861 24.2185H24.4298C24.5496 23.2186 24.6181 22.1796 24.6181 21.0968C24.6181 20.0139 24.5496 18.975 24.4298 17.975H13.861C13.7413 18.975 13.6728 20.0139 13.6728 21.0968ZM32.1925 16.4142C30.5612 13.1022 27.2588 10.5414 23.1808 9.50728C24.5724 11.156 25.5306 13.6387 26.0326 16.4142H32.1925ZM15.1101 9.50728C11.0377 10.5414 7.72963 13.1022 6.1041 16.4142H12.264C12.7602 13.6387 13.7184 11.156 15.1101 9.50728ZM32.8028 17.975H26.2607C26.3805 18.9994 26.4489 20.0481 26.4489 21.0968C26.4489 22.1455 26.3805 23.1942 26.2607 24.2185H32.7971C33.1108 23.2186 33.2876 22.1796 33.2876 21.0968C33.2876 20.0139 33.1108 18.975 32.8028 17.975ZM11.8477 21.0968C11.8477 20.0481 11.9161 18.9994 12.0359 17.975H5.49381C5.18582 18.975 5.0033 20.0139 5.0033 21.0968C5.0033 22.1796 5.18582 23.2186 5.49381 24.2185H12.0302C11.9161 23.1942 11.8477 22.1455 11.8477 21.0968ZM14.1006 25.7794C14.9276 30.1352 16.8782 33.1936 19.1483 33.1936C21.4183 33.1936 23.369 30.1352 24.196 25.7794H14.1006ZM23.1865 32.6863C27.2588 31.6522 30.5669 29.0914 32.1982 25.7794H26.0383C25.5363 28.5548 24.5781 31.0376 23.1865 32.6863ZM6.1041 25.7794C7.73534 29.0914 11.0377 31.6522 15.1158 32.6863C13.7241 31.0376 12.7659 28.5548 12.264 25.7794H6.1041Z" fill="#66FCF1"/>
<path d="M4.60352 60.4652L64.6035 9.14292" stroke="#66FCF1"/>
<path d="M59.9393 49.6452C59.9393 57.5092 54.989 63.6613 49.1256 63.6613C43.2622 63.6613 38.3119 57.5092 38.3119 49.6452C38.3119 41.7811 43.2622 35.629 49.1256 35.629C54.989 35.629 59.9393 41.7811 59.9393 49.6452Z" stroke="#66FCF1"/>
<path d="M54.2633 57.7338L61.1503 64.9843" stroke="#66FCF1"/>
</svg>
