<svg width="300" height="300" viewBox="0 0 300 300" fill="none" xmlns="http://www.w3.org/2000/svg">
<path d="M273.333 1.30435H26.6666C12.8595 1.30435 1.66663 12.4972 1.66663 26.3044V208.478C1.66663 222.285 12.8595 233.478 26.6666 233.478H273.333C287.14 233.478 298.333 222.285 298.333 208.478V26.3044C298.333 12.4972 287.14 1.30435 273.333 1.30435Z" fill="#66FCF1" stroke="black"/>
<path d="M116.547 66.9425C114.11 55.2008 108.363 46.9565 101.675 46.9565C94.987 46.9565 89.2397 55.2008 86.803 66.9425H116.547ZM85.5427 79.5652C85.5427 82.4843 85.7443 85.2848 86.0973 87.9803H117.236C117.589 85.2848 117.791 82.4843 117.791 79.5652C117.791 76.6461 117.589 73.8456 117.236 71.1501H86.0973C85.7443 73.8456 85.5427 76.6461 85.5427 79.5652ZM140.107 66.9425C135.301 58.0145 125.571 51.1114 113.556 48.324C117.656 52.7682 120.479 59.4608 121.958 66.9425H140.107ZM89.7777 48.324C77.779 51.1114 68.0327 58.0145 63.2433 66.9425H81.392C82.854 59.4608 85.6773 52.7682 89.7777 48.324ZM141.905 71.1501H122.63C122.983 73.9114 123.185 76.7382 123.185 79.5652C123.185 82.3923 122.983 85.219 122.63 87.9803H141.888C142.812 85.2848 143.333 82.4843 143.333 79.5652C143.333 76.6461 142.812 73.8456 141.905 71.1501ZM80.1653 79.5652C80.1653 76.7382 80.367 73.9114 80.72 71.1501H61.4453C60.5377 73.8456 60 76.6461 60 79.5652C60 82.4843 60.5377 85.2848 61.4453 87.9803H80.703C80.367 85.219 80.1653 82.3923 80.1653 79.5652ZM86.803 92.1879C89.2397 103.93 94.987 112.174 101.675 112.174C108.363 112.174 114.11 103.93 116.547 92.1879H86.803ZM113.573 110.806C125.571 108.019 135.318 101.116 140.124 92.1879H121.975C120.496 99.6696 117.673 106.362 113.573 110.806ZM63.2433 92.1879C68.0493 101.116 77.779 108.019 89.7943 110.806C85.694 106.362 82.871 99.6696 81.392 92.1879H63.2433Z" fill="black"/>
<path d="M58.7664 185.643L235.543 47.2954" stroke="black" stroke-width="3"/>
<path d="M221.667 156.522C221.667 167.106 218.009 176.629 212.183 183.468C206.35 190.316 198.474 194.348 190 194.348C181.526 194.348 173.65 190.316 167.817 183.468C161.991 176.629 158.333 167.106 158.333 156.522C158.333 145.938 161.991 136.415 167.817 129.576C173.65 122.728 181.526 118.696 190 118.696C198.474 118.696 206.35 122.728 212.183 129.576C218.009 136.415 221.667 145.938 221.667 156.522Z" stroke="black" stroke-width="5"/>
<path d="M205.137 178.326L236.667 208.696" stroke="black" stroke-width="5"/>
<path d="M95.599 269.609C95.599 273.19 94.872 276.282 93.418 278.88C91.964 281.463 89.924 283.484 87.2983 284.945L95.7617 290.142L91.4973 293.223L81.504 287.009C79.9413 287.314 78.292 287.465 76.556 287.465C72.8233 287.465 69.514 286.753 66.6277 285.326C63.7413 283.883 61.4953 281.836 59.8893 279.185C58.305 276.519 57.4913 273.438 57.448 269.94V267.263C57.448 263.697 58.24 260.547 59.8243 257.812C61.4083 255.078 63.6437 252.989 66.53 251.546C69.438 250.085 72.7583 249.355 76.491 249.355C80.3103 249.355 83.6633 250.076 86.5493 251.52C89.4573 252.964 91.6927 255.044 93.2553 257.762C94.8177 260.462 95.599 263.622 95.599 267.237V269.609ZM89.349 267.214C89.349 262.847 88.2313 259.485 85.996 257.125C83.7827 254.747 80.614 253.558 76.491 253.558C72.563 253.558 69.4597 254.738 67.181 257.099C64.924 259.443 63.763 262.703 63.698 266.883V269.609C63.698 273.853 64.8263 277.2 67.0833 279.644C69.362 282.091 72.5197 283.315 76.556 283.315C80.5923 283.315 83.7173 282.167 85.931 279.874C88.1447 277.565 89.284 274.26 89.349 269.963V267.214ZM126.035 284.23C123.691 286.388 120.252 287.465 115.716 287.465C111.962 287.465 109.097 286.617 107.122 284.919C105.169 283.203 104.182 280.672 104.16 277.328V259.392H110.182V277.2C110.182 281.377 112.352 283.466 116.693 283.466C121.293 283.466 124.353 282.125 125.872 279.441V259.392H131.895V286.957H126.165L126.035 284.23ZM147.617 286.957H141.595V259.392H147.617V286.957ZM141.107 252.081C141.107 251.316 141.4 250.671 141.986 250.144C142.593 249.618 143.483 249.355 144.655 249.355C145.827 249.355 146.717 249.618 147.324 250.144C147.932 250.671 148.236 251.316 148.236 252.081C148.236 252.845 147.932 253.482 147.324 253.991C146.717 254.501 145.827 254.755 144.655 254.755C143.483 254.755 142.593 254.501 141.986 253.991C141.4 253.482 141.107 252.845 141.107 252.081ZM162.949 283.109H183.555V286.957H155.592V283.492L175.026 263.29H155.885V259.392H182.578V262.73L162.949 283.109ZM198.008 286.957H191.758V249.864H198.008V286.957ZM241.237 253.889H226.003V286.957H219.785V253.889H204.583V249.864H241.237V253.889Z" fill="#66FCF1"/>
</svg>
